<?xml version="1.0" encoding="UTF-8" standalone="no"?>
<!-- Created with Inkscape (http://www.inkscape.org/) -->

<svg
   xmlns:dc="http://purl.org/dc/elements/1.1/"
   xmlns:cc="http://creativecommons.org/ns#"
   xmlns:rdf="http://www.w3.org/1999/02/22-rdf-syntax-ns#"
   xmlns:svg="http://www.w3.org/2000/svg"
   xmlns="http://www.w3.org/2000/svg"
   xmlns:sodipodi="http://sodipodi.sourceforge.net/DTD/sodipodi-0.dtd"
   xmlns:inkscape="http://www.inkscape.org/namespaces/inkscape"
   width="2104.7244"
   height="1488.189"
   id="svg2"
   version="1.1"
   inkscape:version="0.48.4 r9939"
   sodipodi:docname="monitor-back-2.svg">
  <defs
     id="defs4" />
  <sodipodi:namedview
     id="base"
     pagecolor="#ffffff"
     bordercolor="#666666"
     borderopacity="1.0"
     inkscape:pageopacity="0.0"
     inkscape:pageshadow="2"
     inkscape:zoom="1"
     inkscape:cx="709.47847"
     inkscape:cy="430.88852"
     inkscape:document-units="mm"
     inkscape:current-layer="layer8"
     showgrid="false"
     inkscape:window-width="1920"
     inkscape:window-height="1027"
     inkscape:window-x="-8"
     inkscape:window-y="-8"
     inkscape:window-maximized="1"
     units="mm"
     showguides="false"
     inkscape:snap-global="true"
     inkscape:guide-bbox="true">
    <inkscape:grid
       type="xygrid"
       id="grid3424" />
    <sodipodi:guide
       orientation="0,1"
       position="1110.1576,292.88976"
       id="guide3426" />
    <sodipodi:guide
       orientation="0,1"
       position="955,43.724409"
       id="guide3428" />
    <sodipodi:guide
       orientation="1,0"
       position="889.37008,245"
       id="guide3430" />
    <sodipodi:guide
       orientation="1,0"
       position="1335.8268,237.85714"
       id="guide3432" />
    <sodipodi:guide
       orientation="0,1"
       position="530,762"
       id="guide4331" />
    <sodipodi:guide
       orientation="1,0"
       position="53,456"
       id="guide4333" />
  </sodipodi:namedview>
  <metadata
     id="metadata7">
    <rdf:RDF>
      <cc:Work
         rdf:about="">
        <dc:format>image/svg+xml</dc:format>
        <dc:type
           rdf:resource="http://purl.org/dc/dcmitype/StillImage" />
      </cc:Work>
    </rdf:RDF>
  </metadata>
  <g
     inkscape:groupmode="layer"
     id="layer6"
     inkscape:label="elements"
     style="display:inline"
     sodipodi:insensitive="true">
    <rect
       y="945.79724"
       x="53.415356"
       height="488.97638"
       width="201.96851"
       id="rect3077"
       style="fill:none;stroke:#4c9a4f;stroke-width:0.53149605;stroke-miterlimit:4;stroke-opacity:1;stroke-dasharray:3.18897629, 3.18897629;stroke-dashoffset:0;display:inline" />
    <rect
       y="726.6239"
       x="478.59247"
       height="460.13794"
       width="460.13794"
       id="rect3846"
       style="fill:none;stroke:#4c9a4f;stroke-width:0.49199364;stroke-miterlimit:4;stroke-opacity:1;stroke-dasharray:2.95196182, 2.95196182;stroke-dashoffset:0;display:inline" />
    <rect
       style="fill:none;stroke:#4c9a4f;stroke-width:0.56015271;stroke-miterlimit:4;stroke-opacity:1;stroke-dasharray:3.36091626, 3.36091626;stroke-dashoffset:0;display:inline"
       id="rect3887"
       width="396.29022"
       height="194.32173"
       x="860.45331"
       y="1220.2211" />
    <rect
       y="695.07025"
       x="39.558453"
       height="753.56024"
       width="1338.2059"
       id="rect3159"
       style="fill:none;stroke:#4c9a4f;stroke-width:0.45548695;stroke-miterlimit:4;stroke-opacity:1;stroke-dasharray:2.73292172, 2.73292172;stroke-dashoffset:0;display:inline" />
    <rect
       transform="translate(0,435.82701)"
       style="fill:none;stroke:#4c9a4f;stroke-width:0.49252027;stroke-miterlimit:4;stroke-opacity:1;stroke-dasharray:2.95512164, 2.95512164;stroke-dashoffset:0;display:inline"
       id="rect2987"
       width="1416.8295"
       height="832.18463"
       x="0.24626014"
       y="219.93105" />
    <rect
       style="fill:none;stroke:#4c9a4f;stroke-width:0.49445432;stroke-miterlimit:4;stroke-opacity:1;stroke-dasharray:2.96672595, 2.96672595;stroke-dashoffset:0;display:inline"
       id="rect4294"
       width="353.83624"
       height="176.6709"
       x="283.71179"
       y="875.44379"
       transform="translate(0,435.82701)" />
    <rect
       style="fill:none;stroke:#4c9a4f;stroke-width:0.49256018;stroke-miterlimit:4;stroke-opacity:1;stroke-dasharray:2.95536104, 2.95536104;stroke-dashoffset:0;display:inline"
       id="rect4297"
       width="368.01138"
       height="77.460197"
       x="53.246277"
       y="726.48254" />
  </g>
  <g
     inkscape:groupmode="layer"
     id="layer7"
     inkscape:label="1.5mm nut plate"
     style="display:inline"
     sodipodi:insensitive="true">
    <rect
       y="1120.5291"
       x="519.33618"
       height="26.658396"
       width="24.319815"
       id="rect3868"
       style="fill:none;stroke:#000000;stroke-width:0.48333585;stroke-miterlimit:4;stroke-dasharray:none;stroke-dashoffset:0;display:inline" />
    <rect
       style="fill:none;stroke:#000000;stroke-width:0.48333585;stroke-miterlimit:4;stroke-dasharray:none;stroke-dashoffset:0;display:inline"
       id="rect3870"
       width="24.319815"
       height="26.658396"
       x="563.6275"
       y="1076.2377" />
    <rect
       style="fill:none;stroke:#000000;stroke-width:0.48333585;stroke-miterlimit:4;stroke-dasharray:none;stroke-dashoffset:0;display:inline"
       id="rect3872"
       width="24.319815"
       height="26.658396"
       x="519.33618"
       y="766.1983" />
    <rect
       y="810.48962"
       x="563.6275"
       height="26.658396"
       width="24.319815"
       id="rect3874"
       style="fill:none;stroke:#000000;stroke-width:0.48333585;stroke-miterlimit:4;stroke-dasharray:none;stroke-dashoffset:0;display:inline" />
    <rect
       y="766.1983"
       x="873.66687"
       height="26.658396"
       width="24.319815"
       id="rect3876"
       style="fill:none;stroke:#000000;stroke-width:0.48333585;stroke-miterlimit:4;stroke-dasharray:none;stroke-dashoffset:0;display:inline" />
    <rect
       style="fill:none;stroke:#000000;stroke-width:0.48333585;stroke-miterlimit:4;stroke-dasharray:none;stroke-dashoffset:0;display:inline"
       id="rect3878"
       width="24.319815"
       height="26.658396"
       x="829.37555"
       y="810.48962" />
    <rect
       y="1076.2377"
       x="829.37555"
       height="26.658396"
       width="24.319815"
       id="rect3880"
       style="fill:none;stroke:#000000;stroke-width:0.48333585;stroke-miterlimit:4;stroke-dasharray:none;stroke-dashoffset:0;display:inline" />
    <rect
       style="fill:none;stroke:#000000;stroke-width:0.48333585;stroke-miterlimit:4;stroke-dasharray:none;stroke-dashoffset:0;display:inline"
       id="rect3882"
       width="24.319815"
       height="26.658396"
       x="873.66687"
       y="1120.5291" />
    <rect
       y="985.88336"
       x="76.422768"
       height="26.658396"
       width="24.319815"
       id="rect3876-8"
       style="fill:none;stroke:#000000;stroke-width:0.48333585;stroke-miterlimit:4;stroke-dasharray:none;stroke-dashoffset:0;display:inline" />
    <rect
       y="964.62354"
       x="175.63538"
       height="26.658396"
       width="24.319815"
       id="rect3876-82"
       style="fill:none;stroke:#000000;stroke-width:0.48333585;stroke-miterlimit:4;stroke-dasharray:none;stroke-dashoffset:0;display:inline" />
    <rect
       y="1354.3873"
       x="72.879463"
       height="26.658396"
       width="24.319815"
       id="rect3876-4"
       style="fill:none;stroke:#000000;stroke-width:0.48333585;stroke-miterlimit:4;stroke-dasharray:none;stroke-dashoffset:0;display:inline" />
    <rect
       y="1361.474"
       x="175.63538"
       height="26.658396"
       width="24.319815"
       id="rect3876-5"
       style="fill:none;stroke:#000000;stroke-width:0.48333585;stroke-miterlimit:4;stroke-dasharray:none;stroke-dashoffset:0;display:inline" />
    <rect
       transform="translate(0,435.82701)"
       y="875.44379"
       x="283.71179"
       height="176.6709"
       width="353.83624"
       id="rect3285"
       style="fill:none;stroke:#000000;stroke-width:0.49445432;stroke-miterlimit:4;stroke-dasharray:none;stroke-dashoffset:0;display:inline" />
    <rect
       transform="translate(0,435.82701)"
       y="219.93105"
       x="0.24626014"
       height="832.18463"
       width="1416.8295"
       id="rect3296"
       style="fill:none;stroke:#000000;stroke-width:0.49252027;stroke-miterlimit:4;stroke-dasharray:none;stroke-dashoffset:0;display:inline" />
    <rect
       style="fill:none;stroke:#000000;stroke-width:0.48333585;stroke-miterlimit:4;stroke-dasharray:none;stroke-dashoffset:0;display:inline"
       id="rect3878-7"
       width="24.319815"
       height="26.658396"
       x="885.21802"
       y="1193.0409" />
    <rect
       y="1193.0409"
       x="1204.1157"
       height="26.658396"
       width="24.319815"
       id="rect3349"
       style="fill:none;stroke:#000000;stroke-width:0.48333585;stroke-miterlimit:4;stroke-dasharray:none;stroke-dashoffset:0;display:inline" />
    <rect
       y="1193.0409"
       x="1042.0842"
       height="26.658396"
       width="24.319815"
       id="rect3353"
       style="fill:none;stroke:#000000;stroke-width:0.48333585;stroke-miterlimit:4;stroke-dasharray:none;stroke-dashoffset:0;display:inline" />
    <rect
       y="1415.0645"
       x="885.21802"
       height="26.658396"
       width="24.319815"
       id="rect3357"
       style="fill:none;stroke:#000000;stroke-width:0.48333585;stroke-miterlimit:4;stroke-dasharray:none;stroke-dashoffset:0;display:inline" />
    <rect
       style="fill:none;stroke:#000000;stroke-width:0.48333585;stroke-miterlimit:4;stroke-dasharray:none;stroke-dashoffset:0;display:inline"
       id="rect3361"
       width="24.319815"
       height="26.658396"
       x="1204.1157"
       y="1415.0645" />
    <rect
       style="fill:none;stroke:#000000;stroke-width:0.48333585;stroke-miterlimit:4;stroke-dasharray:none;stroke-dashoffset:0;display:inline"
       id="rect3365"
       width="24.319815"
       height="26.658396"
       x="1042.0842"
       y="1415.0645" />
    <rect
       y="1387.9227"
       x="835.61176"
       height="26.658396"
       width="24.319815"
       id="rect3381"
       style="fill:none;stroke:#000000;stroke-width:0.48333585;stroke-miterlimit:4;stroke-dasharray:none;stroke-dashoffset:0;display:inline" />
    <rect
       style="fill:none;stroke:#000000;stroke-width:0.48333585;stroke-miterlimit:4;stroke-dasharray:none;stroke-dashoffset:0;display:inline"
       id="rect3385"
       width="24.319815"
       height="26.658396"
       x="835.61176"
       y="1220.1826" />
    <rect
       style="fill:none;stroke:#000000;stroke-width:0.48333585;stroke-miterlimit:4;stroke-dasharray:none;stroke-dashoffset:0;display:inline"
       id="rect3405"
       width="24.319815"
       height="26.658396"
       x="1257.2653"
       y="1387.9227" />
    <rect
       y="1220.1826"
       x="1257.2653"
       height="26.658396"
       width="24.319815"
       id="rect3409"
       style="fill:none;stroke:#000000;stroke-width:0.48333585;stroke-miterlimit:4;stroke-dasharray:none;stroke-dashoffset:0;display:inline" />
    <rect
       y="762.51331"
       x="76.273163"
       height="26.658396"
       width="24.319815"
       id="rect3876-82-1"
       style="fill:none;stroke:#000000;stroke-width:0.48333585;stroke-miterlimit:4;stroke-dasharray:none;stroke-dashoffset:0;display:inline" />
    <rect
       y="762.51331"
       x="373.91095"
       height="26.658396"
       width="24.319815"
       id="rect3876-82-2"
       style="fill:none;stroke:#000000;stroke-width:0.48333585;stroke-miterlimit:4;stroke-dasharray:none;stroke-dashoffset:0;display:inline" />
  </g>
  <g
     inkscape:groupmode="layer"
     id="layer8"
     inkscape:label="2.5mm bolt plate"
     style="display:inline"
     sodipodi:insensitive="true">
    <path
       transform="matrix(0.2560265,0,0,0.27202816,229.60238,878.88295)"
       d="m 1214.2033,936.64569 a 34.345188,32.324883 0 1 1 -68.6903,0 34.345188,32.324883 0 1 1 68.6903,0 z"
       sodipodi:ry="32.324883"
       sodipodi:rx="34.345188"
       sodipodi:cy="936.64569"
       sodipodi:cx="1179.8582"
       id="path3848"
       style="fill:none;stroke:#000000;stroke-width:1.86626875;stroke-miterlimit:4;stroke-dasharray:none;stroke-dashoffset:0;display:inline"
       sodipodi:type="arc" />
    <path
       sodipodi:type="arc"
       style="fill:none;stroke:#000000;stroke-width:1.86626875;stroke-miterlimit:4;stroke-dasharray:none;stroke-dashoffset:0;display:inline"
       id="path3850"
       sodipodi:cx="1179.8582"
       sodipodi:cy="936.64569"
       sodipodi:rx="34.345188"
       sodipodi:ry="32.324883"
       d="m 1214.2033,936.64569 a 34.345188,32.324883 0 1 1 -68.6903,0 34.345188,32.324883 0 1 1 68.6903,0 z"
       transform="matrix(0.2560265,0,0,0.27202816,229.60238,524.55224)" />
    <path
       transform="matrix(0.2560265,0,0,0.27202816,583.93309,524.55224)"
       d="m 1214.2033,936.64569 a 34.345188,32.324883 0 1 1 -68.6903,0 34.345188,32.324883 0 1 1 68.6903,0 z"
       sodipodi:ry="32.324883"
       sodipodi:rx="34.345188"
       sodipodi:cy="936.64569"
       sodipodi:cx="1179.8582"
       id="path3852"
       style="fill:none;stroke:#000000;stroke-width:1.86626875;stroke-miterlimit:4;stroke-dasharray:none;stroke-dashoffset:0;display:inline"
       sodipodi:type="arc" />
    <path
       sodipodi:type="arc"
       style="fill:none;stroke:#000000;stroke-width:1.86626875;stroke-miterlimit:4;stroke-dasharray:none;stroke-dashoffset:0;display:inline"
       id="path3854"
       sodipodi:cx="1179.8582"
       sodipodi:cy="936.64569"
       sodipodi:rx="34.345188"
       sodipodi:ry="32.324883"
       d="m 1214.2033,936.64569 a 34.345188,32.324883 0 1 1 -68.6903,0 34.345188,32.324883 0 1 1 68.6903,0 z"
       transform="matrix(0.2560265,0,0,0.27202816,583.93309,878.88295)" />
    <path
       sodipodi:type="arc"
       style="fill:none;stroke:#000000;stroke-width:1.86626875;stroke-miterlimit:4;stroke-dasharray:none;stroke-dashoffset:0;display:inline"
       id="path3856"
       sodipodi:cx="1179.8582"
       sodipodi:cy="936.64569"
       sodipodi:rx="34.345188"
       sodipodi:ry="32.324883"
       d="m 1214.2033,936.64569 a 34.345188,32.324883 0 1 1 -68.6903,0 34.345188,32.324883 0 1 1 68.6903,0 z"
       transform="matrix(0.2560265,0,0,0.27202816,273.89372,834.59161)" />
    <path
       transform="matrix(0.2560265,0,0,0.27202816,273.89372,568.84358)"
       d="m 1214.2033,936.64569 a 34.345188,32.324883 0 1 1 -68.6903,0 34.345188,32.324883 0 1 1 68.6903,0 z"
       sodipodi:ry="32.324883"
       sodipodi:rx="34.345188"
       sodipodi:cy="936.64569"
       sodipodi:cx="1179.8582"
       id="path3858"
       style="fill:none;stroke:#000000;stroke-width:1.86626875;stroke-miterlimit:4;stroke-dasharray:none;stroke-dashoffset:0;display:inline"
       sodipodi:type="arc" />
    <path
       transform="matrix(0.2560265,0,0,0.27202816,539.64175,834.59161)"
       d="m 1214.2033,936.64569 a 34.345188,32.324883 0 1 1 -68.6903,0 34.345188,32.324883 0 1 1 68.6903,0 z"
       sodipodi:ry="32.324883"
       sodipodi:rx="34.345188"
       sodipodi:cy="936.64569"
       sodipodi:cx="1179.8582"
       id="path3860"
       style="fill:none;stroke:#000000;stroke-width:1.86626875;stroke-miterlimit:4;stroke-dasharray:none;stroke-dashoffset:0;display:inline"
       sodipodi:type="arc" />
    <path
       sodipodi:type="arc"
       style="fill:none;stroke:#000000;stroke-width:1.86626875;stroke-miterlimit:4;stroke-dasharray:none;stroke-dashoffset:0;display:inline"
       id="path3862"
       sodipodi:cx="1179.8582"
       sodipodi:cy="936.64569"
       sodipodi:rx="34.345188"
       sodipodi:ry="32.324883"
       d="m 1214.2033,936.64569 a 34.345188,32.324883 0 1 1 -68.6903,0 34.345188,32.324883 0 1 1 68.6903,0 z"
       transform="matrix(0.2560265,0,0,0.27202816,539.64175,568.84358)" />
    <path
       sodipodi:type="arc"
       style="fill:none;stroke:#000000;stroke-width:1.86626875;stroke-miterlimit:4;stroke-dasharray:none;stroke-dashoffset:0;display:inline"
       id="path3850-4"
       sodipodi:cx="1179.8582"
       sodipodi:cy="936.64569"
       sodipodi:rx="34.345188"
       sodipodi:ry="32.324883"
       d="m 1214.2033,936.64569 a 34.345188,32.324883 0 1 1 -68.6903,0 34.345188,32.324883 0 1 1 68.6903,0 z"
       transform="matrix(0.2560265,0,0,0.27202816,-216.85431,1112.7413)" />
    <path
       sodipodi:type="arc"
       style="fill:none;stroke:#000000;stroke-width:1.86626875;stroke-miterlimit:4;stroke-dasharray:none;stroke-dashoffset:0;display:inline"
       id="path3850-4-0"
       sodipodi:cx="1179.8582"
       sodipodi:cy="936.64569"
       sodipodi:rx="34.345188"
       sodipodi:ry="32.324883"
       d="m 1214.2033,936.64569 a 34.345188,32.324883 0 1 1 -68.6903,0 34.345188,32.324883 0 1 1 68.6903,0 z"
       transform="matrix(0.2560265,0,0,0.27202816,-114.0984,1119.8279)" />
    <path
       sodipodi:type="arc"
       style="fill:none;stroke:#000000;stroke-width:1.86626875;stroke-miterlimit:4;stroke-dasharray:none;stroke-dashoffset:0;display:inline"
       id="path3850-4-9"
       sodipodi:cx="1179.8582"
       sodipodi:cy="936.64569"
       sodipodi:rx="34.345188"
       sodipodi:ry="32.324883"
       d="m 1214.2033,936.64569 a 34.345188,32.324883 0 1 1 -68.6903,0 34.345188,32.324883 0 1 1 68.6903,0 z"
       transform="matrix(0.2560265,0,0,0.27202816,-213.311,744.23731)" />
    <path
       sodipodi:type="arc"
       style="fill:none;stroke:#000000;stroke-width:1.86626875;stroke-miterlimit:4;stroke-dasharray:none;stroke-dashoffset:0;display:inline"
       id="path3850-4-0-4"
       sodipodi:cx="1179.8582"
       sodipodi:cy="936.64569"
       sodipodi:rx="34.345188"
       sodipodi:ry="32.324883"
       d="m 1214.2033,936.64569 a 34.345188,32.324883 0 1 1 -68.6903,0 34.345188,32.324883 0 1 1 68.6903,0 z"
       transform="matrix(0.2560265,0,0,0.27202816,-114.0984,722.97747)" />
    <rect
       transform="translate(0,435.82701)"
       y="875.44379"
       x="283.71179"
       height="176.6709"
       width="353.83624"
       id="rect3290"
       style="fill:none;stroke:#000000;stroke-width:0.49445432;stroke-miterlimit:4;stroke-dasharray:none;stroke-dashoffset:0;display:inline" />
    <rect
       transform="translate(0,435.82701)"
       y="219.93105"
       x="0.24626014"
       height="832.18463"
       width="1416.8295"
       id="rect3301"
       style="fill:none;stroke:#000000;stroke-width:0.49252027;stroke-miterlimit:4;stroke-dasharray:none;stroke-dashoffset:0;display:inline" />
    <path
       sodipodi:type="arc"
       style="fill:none;stroke:#000000;stroke-width:1.86626875;stroke-miterlimit:4;stroke-dasharray:none;stroke-dashoffset:0;display:inline"
       id="path3862-1"
       sodipodi:cx="1179.8582"
       sodipodi:cy="936.64569"
       sodipodi:rx="34.345188"
       sodipodi:ry="32.324883"
       d="m 1214.2033,936.64569 a 34.345188,32.324883 0 1 1 -68.6903,0 34.345188,32.324883 0 1 1 68.6903,0 z"
       transform="matrix(0.2560265,0,0,0.27202816,595.48279,951.39453)" />
    <path
       transform="matrix(0.2560265,0,0,0.27202816,914.38035,951.39453)"
       d="m 1214.2033,936.64569 a 34.345188,32.324883 0 1 1 -68.6903,0 34.345188,32.324883 0 1 1 68.6903,0 z"
       sodipodi:ry="32.324883"
       sodipodi:rx="34.345188"
       sodipodi:cy="936.64569"
       sodipodi:cx="1179.8582"
       id="path3351"
       style="fill:none;stroke:#000000;stroke-width:1.86626875;stroke-miterlimit:4;stroke-dasharray:none;stroke-dashoffset:0;display:inline"
       sodipodi:type="arc" />
    <path
       transform="matrix(0.2560265,0,0,0.27202816,752.34896,951.39453)"
       d="m 1214.2033,936.64569 a 34.345188,32.324883 0 1 1 -68.6903,0 34.345188,32.324883 0 1 1 68.6903,0 z"
       sodipodi:ry="32.324883"
       sodipodi:rx="34.345188"
       sodipodi:cy="936.64569"
       sodipodi:cx="1179.8582"
       id="path3355"
       style="fill:none;stroke:#000000;stroke-width:1.86626875;stroke-miterlimit:4;stroke-dasharray:none;stroke-dashoffset:0;display:inline"
       sodipodi:type="arc" />
    <path
       transform="matrix(0.2560265,0,0,0.27202816,595.48279,1173.4181)"
       d="m 1214.2033,936.64569 a 34.345188,32.324883 0 1 1 -68.6903,0 34.345188,32.324883 0 1 1 68.6903,0 z"
       sodipodi:ry="32.324883"
       sodipodi:rx="34.345188"
       sodipodi:cy="936.64569"
       sodipodi:cx="1179.8582"
       id="path3359"
       style="fill:none;stroke:#000000;stroke-width:1.86626875;stroke-miterlimit:4;stroke-dasharray:none;stroke-dashoffset:0;display:inline"
       sodipodi:type="arc" />
    <path
       sodipodi:type="arc"
       style="fill:none;stroke:#000000;stroke-width:1.86626875;stroke-miterlimit:4;stroke-dasharray:none;stroke-dashoffset:0;display:inline"
       id="path3363"
       sodipodi:cx="1179.8582"
       sodipodi:cy="936.64569"
       sodipodi:rx="34.345188"
       sodipodi:ry="32.324883"
       d="m 1214.2033,936.64569 a 34.345188,32.324883 0 1 1 -68.6903,0 34.345188,32.324883 0 1 1 68.6903,0 z"
       transform="matrix(0.2560265,0,0,0.27202816,914.38035,1173.4181)" />
    <path
       sodipodi:type="arc"
       style="fill:none;stroke:#000000;stroke-width:1.86626875;stroke-miterlimit:4;stroke-dasharray:none;stroke-dashoffset:0;display:inline"
       id="path3367"
       sodipodi:cx="1179.8582"
       sodipodi:cy="936.64569"
       sodipodi:rx="34.345188"
       sodipodi:ry="32.324883"
       d="m 1214.2033,936.64569 a 34.345188,32.324883 0 1 1 -68.6903,0 34.345188,32.324883 0 1 1 68.6903,0 z"
       transform="matrix(0.2560265,0,0,0.27202816,752.34896,1173.4181)" />
    <path
       transform="matrix(0.2560265,0,0,0.27202816,545.8765,1146.2764)"
       d="m 1214.2033,936.64569 a 34.345188,32.324883 0 1 1 -68.6903,0 34.345188,32.324883 0 1 1 68.6903,0 z"
       sodipodi:ry="32.324883"
       sodipodi:rx="34.345188"
       sodipodi:cy="936.64569"
       sodipodi:cx="1179.8582"
       id="path3383"
       style="fill:none;stroke:#000000;stroke-width:1.86626875;stroke-miterlimit:4;stroke-dasharray:none;stroke-dashoffset:0;display:inline"
       sodipodi:type="arc" />
    <path
       sodipodi:type="arc"
       style="fill:none;stroke:#000000;stroke-width:1.86626875;stroke-miterlimit:4;stroke-dasharray:none;stroke-dashoffset:0;display:inline"
       id="path3387"
       sodipodi:cx="1179.8582"
       sodipodi:cy="936.64569"
       sodipodi:rx="34.345188"
       sodipodi:ry="32.324883"
       d="m 1214.2033,936.64569 a 34.345188,32.324883 0 1 1 -68.6903,0 34.345188,32.324883 0 1 1 68.6903,0 z"
       transform="matrix(0.2560265,0,0,0.27202816,545.8765,978.53627)" />
    <path
       sodipodi:type="arc"
       style="fill:none;stroke:#000000;stroke-width:1.86626875;stroke-miterlimit:4;stroke-dasharray:none;stroke-dashoffset:0;display:inline"
       id="path3407"
       sodipodi:cx="1179.8582"
       sodipodi:cy="936.64569"
       sodipodi:rx="34.345188"
       sodipodi:ry="32.324883"
       d="m 1214.2033,936.64569 a 34.345188,32.324883 0 1 1 -68.6903,0 34.345188,32.324883 0 1 1 68.6903,0 z"
       transform="matrix(0.2560265,0,0,0.27202816,967.53,1146.2764)" />
    <path
       transform="matrix(0.2560265,0,0,0.27202816,967.53,978.53627)"
       d="m 1214.2033,936.64569 a 34.345188,32.324883 0 1 1 -68.6903,0 34.345188,32.324883 0 1 1 68.6903,0 z"
       sodipodi:ry="32.324883"
       sodipodi:rx="34.345188"
       sodipodi:cy="936.64569"
       sodipodi:cx="1179.8582"
       id="path3411"
       style="fill:none;stroke:#000000;stroke-width:1.86626875;stroke-miterlimit:4;stroke-dasharray:none;stroke-dashoffset:0;display:inline"
       sodipodi:type="arc" />
    <path
       sodipodi:type="arc"
       style="fill:none;stroke:#000000;stroke-width:1.86626875;stroke-miterlimit:4;stroke-dasharray:none;stroke-dashoffset:0;display:inline"
       id="path3850-4-0-4-5"
       sodipodi:cx="1179.8582"
       sodipodi:cy="936.64569"
       sodipodi:rx="34.345188"
       sodipodi:ry="32.324883"
       d="m 1214.2033,936.64569 a 34.345188,32.324883 0 1 1 -68.6903,0 34.345188,32.324883 0 1 1 68.6903,0 z"
       transform="matrix(0.2560265,0,0,0.27202816,-213.46062,520.8673)" />
    <path
       sodipodi:type="arc"
       style="fill:none;stroke:#000000;stroke-width:1.86626875;stroke-miterlimit:4;stroke-dasharray:none;stroke-dashoffset:0;display:inline"
       id="path3850-4-0-4-7"
       sodipodi:cx="1179.8582"
       sodipodi:cy="936.64569"
       sodipodi:rx="34.345188"
       sodipodi:ry="32.324883"
       d="m 1214.2033,936.64569 a 34.345188,32.324883 0 1 1 -68.6903,0 34.345188,32.324883 0 1 1 68.6903,0 z"
       transform="matrix(0.2560265,0,0,0.27202816,84.17719,520.8673)" />
  </g>
  <g
     inkscape:groupmode="layer"
     id="g3140"
     inkscape:label="2.5mm vesa plate spacer"
     style="display:inline"
     sodipodi:insensitive="true">
    <path
       sodipodi:type="arc"
       style="fill:none;stroke:#000000;stroke-width:1.86626875;stroke-miterlimit:4;stroke-dasharray:none;stroke-dashoffset:0"
       id="path3142"
       sodipodi:cx="1179.8582"
       sodipodi:cy="936.64569"
       sodipodi:rx="34.345188"
       sodipodi:ry="32.324883"
       d="m 1214.2033,936.64569 a 34.345188,32.324883 0 1 1 -68.6903,0 34.345188,32.324883 0 1 1 68.6903,0 z"
       transform="matrix(0.2560265,0,0,0.27202816,229.60238,878.88295)" />
    <path
       transform="matrix(0.2560265,0,0,0.27202816,229.60238,524.55224)"
       d="m 1214.2033,936.64569 a 34.345188,32.324883 0 1 1 -68.6903,0 34.345188,32.324883 0 1 1 68.6903,0 z"
       sodipodi:ry="32.324883"
       sodipodi:rx="34.345188"
       sodipodi:cy="936.64569"
       sodipodi:cx="1179.8582"
       id="path3144"
       style="fill:none;stroke:#000000;stroke-width:1.86626875;stroke-miterlimit:4;stroke-dasharray:none;stroke-dashoffset:0"
       sodipodi:type="arc" />
    <path
       sodipodi:type="arc"
       style="fill:none;stroke:#000000;stroke-width:1.86626875;stroke-miterlimit:4;stroke-dasharray:none;stroke-dashoffset:0"
       id="path3146"
       sodipodi:cx="1179.8582"
       sodipodi:cy="936.64569"
       sodipodi:rx="34.345188"
       sodipodi:ry="32.324883"
       d="m 1214.2033,936.64569 a 34.345188,32.324883 0 1 1 -68.6903,0 34.345188,32.324883 0 1 1 68.6903,0 z"
       transform="matrix(0.2560265,0,0,0.27202816,583.93309,524.55224)" />
    <path
       transform="matrix(0.2560265,0,0,0.27202816,583.93309,878.88295)"
       d="m 1214.2033,936.64569 a 34.345188,32.324883 0 1 1 -68.6903,0 34.345188,32.324883 0 1 1 68.6903,0 z"
       sodipodi:ry="32.324883"
       sodipodi:rx="34.345188"
       sodipodi:cy="936.64569"
       sodipodi:cx="1179.8582"
       id="path3148"
       style="fill:none;stroke:#000000;stroke-width:1.86626875;stroke-miterlimit:4;stroke-dasharray:none;stroke-dashoffset:0"
       sodipodi:type="arc" />
    <path
       transform="matrix(0.2560265,0,0,0.27202816,273.89372,834.59161)"
       d="m 1214.2033,936.64569 a 34.345188,32.324883 0 1 1 -68.6903,0 34.345188,32.324883 0 1 1 68.6903,0 z"
       sodipodi:ry="32.324883"
       sodipodi:rx="34.345188"
       sodipodi:cy="936.64569"
       sodipodi:cx="1179.8582"
       id="path3150"
       style="fill:none;stroke:#000000;stroke-width:1.86626875;stroke-miterlimit:4;stroke-dasharray:none;stroke-dashoffset:0"
       sodipodi:type="arc" />
    <path
       sodipodi:type="arc"
       style="fill:none;stroke:#000000;stroke-width:1.86626875;stroke-miterlimit:4;stroke-dasharray:none;stroke-dashoffset:0"
       id="path3152"
       sodipodi:cx="1179.8582"
       sodipodi:cy="936.64569"
       sodipodi:rx="34.345188"
       sodipodi:ry="32.324883"
       d="m 1214.2033,936.64569 a 34.345188,32.324883 0 1 1 -68.6903,0 34.345188,32.324883 0 1 1 68.6903,0 z"
       transform="matrix(0.2560265,0,0,0.27202816,273.89372,568.84358)" />
    <path
       sodipodi:type="arc"
       style="fill:none;stroke:#000000;stroke-width:1.86626875;stroke-miterlimit:4;stroke-dasharray:none;stroke-dashoffset:0"
       id="path3154"
       sodipodi:cx="1179.8582"
       sodipodi:cy="936.64569"
       sodipodi:rx="34.345188"
       sodipodi:ry="32.324883"
       d="m 1214.2033,936.64569 a 34.345188,32.324883 0 1 1 -68.6903,0 34.345188,32.324883 0 1 1 68.6903,0 z"
       transform="matrix(0.2560265,0,0,0.27202816,539.64175,834.59161)" />
    <path
       transform="matrix(0.2560265,0,0,0.27202816,539.64175,568.84358)"
       d="m 1214.2033,936.64569 a 34.345188,32.324883 0 1 1 -68.6903,0 34.345188,32.324883 0 1 1 68.6903,0 z"
       sodipodi:ry="32.324883"
       sodipodi:rx="34.345188"
       sodipodi:cy="936.64569"
       sodipodi:cx="1179.8582"
       id="path3156"
       style="fill:none;stroke:#000000;stroke-width:1.86626875;stroke-miterlimit:4;stroke-dasharray:none;stroke-dashoffset:0"
       sodipodi:type="arc" />
    <rect
       style="fill:none;stroke:#000000;stroke-width:0.49199364;stroke-miterlimit:4;stroke-dasharray:none;stroke-dashoffset:0;display:inline"
       id="rect4289"
       width="460.13794"
       height="460.13794"
       x="478.59247"
       y="726.6239" />
  </g>
  <g
     inkscape:groupmode="layer"
     id="layer10"
     inkscape:label="2.5mm control board cover"
     style="display:inline"
     sodipodi:insensitive="true">
    <path
       transform="matrix(0.2560265,0,0,0.27202816,-216.85431,1112.7413)"
       d="m 1214.2033,936.64569 a 34.345188,32.324883 0 1 1 -68.6903,0 34.345188,32.324883 0 1 1 68.6903,0 z"
       sodipodi:ry="32.324883"
       sodipodi:rx="34.345188"
       sodipodi:cy="936.64569"
       sodipodi:cx="1179.8582"
       id="path4248"
       style="fill:none;stroke:#000000;stroke-width:1.86626875;stroke-miterlimit:4;stroke-dasharray:none;stroke-dashoffset:0;display:inline"
       sodipodi:type="arc" />
    <path
       transform="matrix(0.2560265,0,0,0.27202816,-114.0984,1119.8279)"
       d="m 1214.2033,936.64569 a 34.345188,32.324883 0 1 1 -68.6903,0 34.345188,32.324883 0 1 1 68.6903,0 z"
       sodipodi:ry="32.324883"
       sodipodi:rx="34.345188"
       sodipodi:cy="936.64569"
       sodipodi:cx="1179.8582"
       id="path4250"
       style="fill:none;stroke:#000000;stroke-width:1.86626875;stroke-miterlimit:4;stroke-dasharray:none;stroke-dashoffset:0;display:inline"
       sodipodi:type="arc" />
    <path
       transform="matrix(0.2560265,0,0,0.27202816,-213.311,744.23731)"
       d="m 1214.2033,936.64569 a 34.345188,32.324883 0 1 1 -68.6903,0 34.345188,32.324883 0 1 1 68.6903,0 z"
       sodipodi:ry="32.324883"
       sodipodi:rx="34.345188"
       sodipodi:cy="936.64569"
       sodipodi:cx="1179.8582"
       id="path4252"
       style="fill:none;stroke:#000000;stroke-width:1.86626875;stroke-miterlimit:4;stroke-dasharray:none;stroke-dashoffset:0;display:inline"
       sodipodi:type="arc" />
    <path
       transform="matrix(0.2560265,0,0,0.27202816,-114.0984,722.97747)"
       d="m 1214.2033,936.64569 a 34.345188,32.324883 0 1 1 -68.6903,0 34.345188,32.324883 0 1 1 68.6903,0 z"
       sodipodi:ry="32.324883"
       sodipodi:rx="34.345188"
       sodipodi:cy="936.64569"
       sodipodi:cx="1179.8582"
       id="path4254"
       style="fill:none;stroke:#000000;stroke-width:1.86626875;stroke-miterlimit:4;stroke-dasharray:none;stroke-dashoffset:0;display:inline"
       sodipodi:type="arc" />
    <rect
       style="fill:none;stroke:#000000;stroke-width:0.53149605;stroke-miterlimit:4;stroke-dasharray:none;stroke-dashoffset:0;display:inline"
       id="rect4244"
       width="201.96851"
       height="488.97638"
       x="53.415356"
       y="945.79724" />
  </g>
  <g
     inkscape:groupmode="layer"
     id="layer9"
     inkscape:label="2.5mm power brick cover"
     style="display:inline"
     sodipodi:insensitive="true">
    <rect
       style="fill:none;stroke:#000000;stroke-width:0.54956156;stroke-miterlimit:4;stroke-dasharray:none;stroke-dashoffset:0"
       id="rect3434"
       width="464.15518"
       height="256.23392"
       x="826.52087"
       y="1189.2642" />
    <path
       transform="matrix(0.2560265,0,0,0.27202816,595.48279,951.39453)"
       d="m 1214.2033,936.64569 a 34.345188,32.324883 0 1 1 -68.6903,0 34.345188,32.324883 0 1 1 68.6903,0 z"
       sodipodi:ry="32.324883"
       sodipodi:rx="34.345188"
       sodipodi:cy="936.64569"
       sodipodi:cx="1179.8582"
       id="path3436"
       style="fill:none;stroke:#000000;stroke-width:1.86626875;stroke-miterlimit:4;stroke-dasharray:none;stroke-dashoffset:0;display:inline"
       sodipodi:type="arc" />
    <path
       sodipodi:type="arc"
       style="fill:none;stroke:#000000;stroke-width:1.86626875;stroke-miterlimit:4;stroke-dasharray:none;stroke-dashoffset:0;display:inline"
       id="path3438"
       sodipodi:cx="1179.8582"
       sodipodi:cy="936.64569"
       sodipodi:rx="34.345188"
       sodipodi:ry="32.324883"
       d="m 1214.2033,936.64569 a 34.345188,32.324883 0 1 1 -68.6903,0 34.345188,32.324883 0 1 1 68.6903,0 z"
       transform="matrix(0.2560265,0,0,0.27202816,914.38035,951.39453)" />
    <path
       sodipodi:type="arc"
       style="fill:none;stroke:#000000;stroke-width:1.86626875;stroke-miterlimit:4;stroke-dasharray:none;stroke-dashoffset:0;display:inline"
       id="path3440"
       sodipodi:cx="1179.8582"
       sodipodi:cy="936.64569"
       sodipodi:rx="34.345188"
       sodipodi:ry="32.324883"
       d="m 1214.2033,936.64569 a 34.345188,32.324883 0 1 1 -68.6903,0 34.345188,32.324883 0 1 1 68.6903,0 z"
       transform="matrix(0.2560265,0,0,0.27202816,752.34896,951.39453)" />
    <path
       sodipodi:type="arc"
       style="fill:none;stroke:#000000;stroke-width:1.86626875;stroke-miterlimit:4;stroke-dasharray:none;stroke-dashoffset:0;display:inline"
       id="path3442"
       sodipodi:cx="1179.8582"
       sodipodi:cy="936.64569"
       sodipodi:rx="34.345188"
       sodipodi:ry="32.324883"
       d="m 1214.2033,936.64569 a 34.345188,32.324883 0 1 1 -68.6903,0 34.345188,32.324883 0 1 1 68.6903,0 z"
       transform="matrix(0.2560265,0,0,0.27202816,595.48279,1173.4181)" />
    <path
       transform="matrix(0.2560265,0,0,0.27202816,914.38035,1173.4181)"
       d="m 1214.2033,936.64569 a 34.345188,32.324883 0 1 1 -68.6903,0 34.345188,32.324883 0 1 1 68.6903,0 z"
       sodipodi:ry="32.324883"
       sodipodi:rx="34.345188"
       sodipodi:cy="936.64569"
       sodipodi:cx="1179.8582"
       id="path3444"
       style="fill:none;stroke:#000000;stroke-width:1.86626875;stroke-miterlimit:4;stroke-dasharray:none;stroke-dashoffset:0;display:inline"
       sodipodi:type="arc" />
    <path
       transform="matrix(0.2560265,0,0,0.27202816,752.34896,1173.4181)"
       d="m 1214.2033,936.64569 a 34.345188,32.324883 0 1 1 -68.6903,0 34.345188,32.324883 0 1 1 68.6903,0 z"
       sodipodi:ry="32.324883"
       sodipodi:rx="34.345188"
       sodipodi:cy="936.64569"
       sodipodi:cx="1179.8582"
       id="path3446"
       style="fill:none;stroke:#000000;stroke-width:1.86626875;stroke-miterlimit:4;stroke-dasharray:none;stroke-dashoffset:0;display:inline"
       sodipodi:type="arc" />
    <path
       sodipodi:type="arc"
       style="fill:none;stroke:#000000;stroke-width:1.86626875;stroke-miterlimit:4;stroke-dasharray:none;stroke-dashoffset:0;display:inline"
       id="path3448"
       sodipodi:cx="1179.8582"
       sodipodi:cy="936.64569"
       sodipodi:rx="34.345188"
       sodipodi:ry="32.324883"
       d="m 1214.2033,936.64569 a 34.345188,32.324883 0 1 1 -68.6903,0 34.345188,32.324883 0 1 1 68.6903,0 z"
       transform="matrix(0.2560265,0,0,0.27202816,545.8765,1146.2764)" />
    <path
       transform="matrix(0.2560265,0,0,0.27202816,545.8765,978.53627)"
       d="m 1214.2033,936.64569 a 34.345188,32.324883 0 1 1 -68.6903,0 34.345188,32.324883 0 1 1 68.6903,0 z"
       sodipodi:ry="32.324883"
       sodipodi:rx="34.345188"
       sodipodi:cy="936.64569"
       sodipodi:cx="1179.8582"
       id="path3450"
       style="fill:none;stroke:#000000;stroke-width:1.86626875;stroke-miterlimit:4;stroke-dasharray:none;stroke-dashoffset:0;display:inline"
       sodipodi:type="arc" />
    <path
       transform="matrix(0.2560265,0,0,0.27202816,967.53,1146.2764)"
       d="m 1214.2033,936.64569 a 34.345188,32.324883 0 1 1 -68.6903,0 34.345188,32.324883 0 1 1 68.6903,0 z"
       sodipodi:ry="32.324883"
       sodipodi:rx="34.345188"
       sodipodi:cy="936.64569"
       sodipodi:cx="1179.8582"
       id="path3452"
       style="fill:none;stroke:#000000;stroke-width:1.86626875;stroke-miterlimit:4;stroke-dasharray:none;stroke-dashoffset:0;display:inline"
       sodipodi:type="arc" />
    <path
       sodipodi:type="arc"
       style="fill:none;stroke:#000000;stroke-width:1.86626875;stroke-miterlimit:4;stroke-dasharray:none;stroke-dashoffset:0;display:inline"
       id="path3454"
       sodipodi:cx="1179.8582"
       sodipodi:cy="936.64569"
       sodipodi:rx="34.345188"
       sodipodi:ry="32.324883"
       d="m 1214.2033,936.64569 a 34.345188,32.324883 0 1 1 -68.6903,0 34.345188,32.324883 0 1 1 68.6903,0 z"
       transform="matrix(0.2560265,0,0,0.27202816,967.53,978.53627)" />
  </g>
</svg>
